<?xml version="1.0" encoding="UTF-8"?>
<svg version="1.1" xmlns="http://www.w3.org/2000/svg" width="500" height="500">
<path d="M0 0 C0.91909149 0.00215515 1.83818298 0.0043103 2.78512573 0.00653076 C53.99498674 0.19867117 104.98634682 15.64635388 146.375 46.3125 C146.96249023 46.74449707 147.54998047 47.17649414 148.15527344 47.62158203 C154.76469208 52.50736797 161.0593493 57.65859024 167.109375 63.23046875 C169.18392036 65.1369044 171.29765931 66.9801561 173.4375 68.8125 C181.60852053 75.96624488 188.65955737 83.79036469 195.375 92.3125 C196.56416016 93.79363281 196.56416016 93.79363281 197.77734375 95.3046875 C229.19477543 135.11002748 250.31221825 186.85668042 250.578125 238.04296875 C250.58513931 238.947659 250.59215363 239.85234924 250.59938049 240.78445435 C250.6168005 243.68968735 250.62323321 246.59471668 250.625 249.5 C250.62567474 250.49148041 250.62634949 251.48296082 250.62704468 252.50448608 C250.61169249 266.6739795 250.21256564 280.38999536 247.375 294.3125 C247.0311632 296.16795267 246.6874171 298.02342214 246.34375 299.87890625 C240.04836093 332.33659542 226.94005613 365.47736837 207.375 392.3125 C206.94106934 392.91336426 206.50713867 393.51422852 206.06005859 394.13330078 C192.26711181 413.16898686 177.01823462 430.85935225 158.375 445.3125 C156.93833984 446.47458984 156.93833984 446.47458984 155.47265625 447.66015625 C111.45776238 482.6833568 56.73149676 500.86260006 0.75 500.625 C-0.16909149 500.62284485 -1.08818298 500.6206897 -2.03512573 500.61846924 C-40.21132518 500.47523139 -76.25718959 492.00461598 -110.625 475.3125 C-111.34606934 474.96493652 -112.06713867 474.61737305 -112.81005859 474.25927734 C-136.57733618 462.65917221 -157.55869473 446.50844612 -176.625 428.3125 C-177.49769531 427.48105469 -178.37039062 426.64960938 -179.26953125 425.79296875 C-185.21147529 419.99706327 -190.55582775 413.87883342 -195.625 407.3125 C-196.14078613 406.65137207 -196.65657227 405.99024414 -197.18798828 405.30908203 C-225.20150601 369.19000705 -242.81161776 326.63951227 -248.625 281.3125 C-248.71232895 280.64062653 -248.7996579 279.96875305 -248.88963318 279.27651978 C-249.56555995 273.69796354 -249.79894817 268.19848719 -249.828125 262.58203125 C-249.83864647 261.22499588 -249.83864647 261.22499588 -249.84938049 259.84054565 C-249.8668005 256.93531265 -249.87323321 254.03028332 -249.875 251.125 C-249.87567474 250.13351959 -249.87634949 249.14203918 -249.87704468 248.12051392 C-249.8616899 233.94862705 -249.45342533 220.2383518 -246.625 206.3125 C-246.29256516 204.49226116 -245.96055109 202.67194544 -245.62890625 200.8515625 C-238.34014691 162.75569062 -221.76012351 126.66892591 -197.625 96.3125 C-196.90957031 95.405 -196.19414062 94.4975 -195.45703125 93.5625 C-154.07561078 42.00051768 -93.89419932 8.42042819 -28.08779907 0.98945618 C-18.73423218 0.01775952 -9.39564812 -0.03987758 0 0 Z " fill="#493036" transform="translate(249.625,-0.3125)"/>
<path d="M0 0 C8.43211265 -0.27924467 16.86226554 -0.49183687 25.29787254 -0.62174606 C29.21604138 -0.68413141 33.13102703 -0.76857113 37.04736328 -0.90527344 C40.83429266 -1.03661657 44.61818256 -1.10759327 48.40721512 -1.13852692 C49.84521981 -1.16053739 51.28307555 -1.20352825 52.71976852 -1.26876068 C58.93608622 -1.53953046 64.05392956 -1.64215475 69.03399658 2.56018066 C71.66189694 5.50038252 73.83424552 8.70679355 76 12 C77.36494158 13.82008674 78.73845757 15.63381451 80.125 17.4375 C80.85460937 18.42234375 81.58421875 19.4071875 82.3359375 20.421875 C85.76325402 25.04376369 89.26028679 29.61266369 92.75 34.1875 C93.442146 35.0952417 94.13429199 36.0029834 94.84741211 36.93823242 C101.22381901 45.29811299 107.61010317 53.65042838 114 62 C121.6954795 72.05555472 129.37927527 82.11987203 137.05126953 92.19335938 C143.35636196 100.47078295 149.67623323 108.73683943 156 117 C184.10861479 153.72905818 184.10861479 153.72905818 194 167 C197.27967183 163.92112441 199.8774452 160.55124499 202.4375 156.875 C203.32496552 155.61679563 204.2130154 154.35900329 205.1015625 153.1015625 C205.57110352 152.43543945 206.04064453 151.76931641 206.52441406 151.08300781 C209.0952741 147.4538586 211.70501481 143.85287859 214.3125 140.25 C215.42453718 138.71228153 216.5365158 137.17452072 217.6484375 135.63671875 C218.20370117 134.8689209 218.75896484 134.10112305 219.33105469 133.31005859 C220.96518299 131.04819171 222.5963713 128.78423692 224.2265625 126.51953125 C229.83648065 118.73015904 235.48272122 110.9702303 241.1875 103.25 C246.00286929 96.73277127 250.75864473 90.17886685 255.453125 83.57421875 C260.03990213 77.12474489 264.69333353 70.72292607 269.33105469 64.31005859 C270.96518299 62.04819171 272.5963713 59.78423692 274.2265625 57.51953125 C280.41987936 48.92010984 286.66855645 40.36474005 292.96704102 31.84204102 C297.21100911 26.09151486 301.39071846 20.29964087 305.5234375 14.46875 C306.11946777 13.69785034 306.11946777 13.69785034 306.72753906 12.91137695 C308.13621868 10.92901477 308.13621868 10.92901477 309.17089844 8.17260742 C311.07676903 4.37704356 312.50092001 2.46853268 316 0 C324.26774839 -1.91395378 333.0931241 -1.02607479 341.5 -0.6875 C343.87228303 -0.63228921 346.24468873 -0.58210504 348.6171875 -0.53710938 C354.41414436 -0.41623171 360.20650412 -0.23251248 366 0 C366 1.32 366 2.64 366 4 C355.11 4 344.22 4 333 4 C333 99.7 333 195.4 333 294 C343.89 294 354.78 294 366 294 C366 295.32 366 296.64 366 298 C322.44 298 278.88 298 234 298 C234 296.68 234 295.36 234 294 C244.89 294 255.78 294 267 294 C266.67 221.73 266.34 149.46 266 75 C262.04 80.94 262.04 80.94 258 87 C255.93330459 89.91101609 253.8579188 92.807214 251.75 95.6875 C247.45508341 101.59426174 243.1986972 107.52444869 239 113.5 C234.34040318 120.12723844 229.61412544 126.70335983 224.85986328 133.26293945 C220.71377392 138.99123601 216.62128977 144.75540596 212.57226562 150.55273438 C211.91387695 151.49149414 211.91387695 151.49149414 211.2421875 152.44921875 C210.79574387 153.10451569 210.34930023 153.75981262 209.889328 154.43496704 C208.4291304 156.41739411 206.95803911 158.19330004 205.32258606 160.02047729 C196.42875613 170.35789533 195.43771756 178.74838442 195.70703125 192.05859375 C195.70510463 193.9428871 195.69831762 195.82718108 195.68693542 197.71144104 C195.67009636 202.61963416 195.71831376 207.52500573 195.78112793 212.43273926 C195.8336269 217.46099708 195.82316891 222.48910638 195.81835938 227.51757812 C195.8180617 237.34589384 195.88664409 247.17238287 196 257 C193.37112465 254.40533665 191.01456217 251.84037192 188.8203125 248.8671875 C188.22839111 248.07022461 187.63646973 247.27326172 187.02661133 246.45214844 C186.39907959 245.60168945 185.77154785 244.75123047 185.125 243.875 C180.09370959 237.10757308 175.0110597 230.38985273 169.8125 223.75 C164.88178733 217.44672834 160.03501896 211.08870977 155.24829102 204.67553711 C151.88850654 200.17625508 148.48807653 195.71101506 145.05615234 191.26635742 C141.14164359 186.19338012 137.25692879 181.09793787 133.375 176 C132.69211914 175.10321533 132.00923828 174.20643066 131.30566406 173.2824707 C129.90259366 171.43967345 128.49959957 169.5968181 127.09667969 167.75390625 C123.73235411 163.33499701 120.36610805 158.91755149 117 154.5 C115.66665685 152.75000748 114.33332353 151.00000747 113 149.25 C112.34 148.38375 111.68 147.5175 111 146.625 C105 138.75 105 138.75 102.99926758 136.12402344 C101.66839527 134.3772637 100.3375034 132.63051886 99.0065918 130.88378906 C95.63544264 126.45933629 92.26465338 122.03461013 88.89453125 117.609375 C87.88072388 116.2783374 87.88072388 116.2783374 86.84643555 114.92041016 C85.4975012 113.14935699 84.14870416 111.37819923 82.80004883 109.60693359 C79.70425018 105.54257641 76.6046211 101.48132397 73.4921875 97.4296875 C72.93297607 96.70104492 72.37376465 95.97240234 71.79760742 95.22167969 C70.79136538 93.91135268 69.78391557 92.60195123 68.7746582 91.29394531 C63.39190468 84.28238335 58.23204309 77.13460421 53 70 C52.67 143.26 52.34 216.52 52 292 C67.84 292 83.68 292 100 292 C100 293.32 100 294.64 100 296 C67 296 34 296 0 296 C0 294.68 0 293.36 0 292 C15.51 292 31.02 292 47 292 C47 196.96 47 101.92 47 4 C31.49 4 15.98 4 0 4 C0 2.68 0 1.36 0 0 Z " fill="#FDFDFD" transform="translate(67,101)"/>
<path d="M0 0 C31.35067439 -0.11845952 62.66398096 -0.02188579 94 1 C94 1.99 94 2.98 94 4 C86.08 4 78.16 4 70 4 C70.01160156 6.48660156 70.02320313 8.97320312 70.03515625 11.53515625 C70.10618745 31.4038597 69.9810546 51.26027506 69.5625 71.125 C69.5330278 72.5970842 69.5330278 72.5970842 69.50296021 74.09890747 C69.26509791 85.75685064 68.84741488 97.36910077 68 109 C59.51174005 100.57843854 52.32305453 91.17778871 45.12158203 81.66040039 C39.43300149 74.17960754 33.45097842 66.9502692 27.41943359 59.74487305 C26.95102051 59.16906494 26.48260742 58.59325684 26 58 C25.48274857 57.40993668 24.96549713 56.81987335 24.43257141 56.21192932 C22.69597964 53.53058427 22.63586599 52.03671384 22.65942383 48.86425781 C22.65965042 47.84350159 22.65987701 46.82274536 22.66011047 45.77105713 C22.67559433 44.67613953 22.69107819 43.58122192 22.70703125 42.453125 C22.71127609 41.3267865 22.71552094 40.200448 22.71989441 39.03997803 C22.73668503 35.44307537 22.77433901 31.84673328 22.8125 28.25 C22.82754629 25.81120601 22.84123479 23.37240323 22.85351562 20.93359375 C22.88403769 14.95533953 22.94276098 8.97829713 23 3 C15.41 3 7.82 3 0 3 C0 2.01 0 1.02 0 0 Z " fill="#FDFDFD" transform="translate(191,138)"/>
<path d="M0 0 C8.38081505 7.18355576 16.59651382 14.476871 24.61791992 22.05932617 C26.4857797 23.80038692 28.37810985 25.5155871 30.29467773 27.20288086 C47.07153548 42.02183514 47.07153548 42.02183514 48.21923828 53.35400391 C48.41575884 59.99118474 47.8769449 66.42431411 47 73 C54.92 73 62.84 73 71 73 C71 74.32 71 75.64 71 77 C39.98 77 8.96 77 -23 77 C-23 75.68 -23 74.36 -23 73 C-15.41 73 -7.82 73 0 73 C0 48.91 0 24.82 0 0 Z " fill="#FAFAFA" transform="translate(213,320)"/>
</svg>
